{"accessors":[{"bufferView":0,"componentType":5121,"count":204,"max":[123],"min":[0],"type":"SCALAR"},{"bufferView":1,"componentType":5126,"count":124,"max":[0.25,0.6000000238418579,0.25],"min":[-0.25,0.20000000298023224,-0.25],"type":"VEC3"},{"bufferView":2,"componentType":5126,"count":124,"max":[1.0,1.0,1.0],"min":[-1.0,-1.0,-1.0],"type":"VEC3"},{"bufferView":3,"componentType":5126,"count":124,"max":[0.9852683544158936,0.999605655670166],"min":[0.0003943725605495274,0.06342995166778564],"type":"VEC2"},{"bufferView":4,"componentType":5121,"count":192,"max":[63],"min":[0],"type":"SCALAR"},{"bufferView":5,"componentType":5126,"count":64,"max":[0.24513818323612213,0.008618462830781937,0.2470468282699585],"min":[-0.24513818323612213,0.00016566496924497187,-0.2470468282699585],"type":"VEC3"},{"bufferView":6,"componentType":5126,"count":64,"max":[0.9827772974967957,-0.1847929060459137,0.9827772974967957],"min":[-0.9827772974967957,-0.18479906022548676,-0.9827772974967957],"type":"VEC3"},{"bufferView":7,"componentType":5121,"count":300,"max":[134],"min":[0],"type":"SCALAR"},{"bufferView":8,"componentType":5126,"count":135,"max":[0.24566197395324707,0.20000003278255463,0.24733757972717285],"min":[-0.24566197395324707,0.008618462830781937,-0.24733757972717285],"type":"VEC3"},{"bufferView":9,"componentType":5126,"count":135,"max":[1.0,1.0,1.0],"min":[-1.0,-1.0,-1.0],"type":"VEC3"},{"bufferView":10,"componentType":5121,"count":150,"max":[103],"min":[0],"type":"SCALAR"},{"bufferView":11,"componentType":5126,"count":104,"max":[0.23000000417232513,0.39000001549720764,0.25],"min":[-0.23000000417232513,0.2199999988079071,-0.23000001907348633],"type":"VEC3"},{"bufferView":12,"componentType":5126,"count":104,"max":[1.0,1.0,1.0],"min":[-1.0,-1.0,-1.0],"type":"VEC3"},{"bufferView":13,"componentType":5126,"count":104,"max":[0.9656392335891724,0.8218709230422974],"min":[0.6180314421653748,0.018526911735534668],"type":"VEC2"},{"bufferView":14,"componentType":5121,"count":36,"max":[23],"min":[0],"type":"SCALAR"},{"bufferView":15,"componentType":5126,"count":24,"max":[1.0,1.0,1.0],"min":[-1.0,-1.0,-1.0],"type":"VEC3"},{"bufferView":16,"componentType":5126,"count":24,"max":[1.0,1.0,1.0],"min":[-1.0,-1.0,-1.0],"type":"VEC3"},{"bufferView":17,"componentType":5126,"count":24,"max":[0.875,1.0],"min":[0.125,0.0],"type":"VEC2"},{"bufferView":18,"componentType":5121,"count":36,"max":[23],"min":[0],"type":"SCALAR"},{"bufferView":19,"componentType":5126,"count":24,"max":[1.0,1.0,1.0],"min":[-1.0,-1.0,-1.0],"type":"VEC3"},{"bufferView":20,"componentType":5126,"count":24,"max":[1.0,1.0,1.0],"min":[-1.0,-1.0,-1.0],"type":"VEC3"},{"bufferView":21,"componentType":5126,"count":24,"max":[0.875,1.0],"min":[0.125,0.0],"type":"VEC2"},{"bufferView":22,"componentType":5121,"count":36,"max":[23],"min":[0],"type":"SCALAR"},{"bufferView":23,"componentType":5126,"count":24,"max":[1.0,1.0,1.0],"min":[-1.0,-1.0,-1.0],"type":"VEC3"},{"bufferView":24,"componentType":5126,"count":24,"max":[1.0,1.0,1.0],"min":[-1.0,-1.0,-1.0],"type":"VEC3"},{"bufferView":25,"componentType":5126,"count":24,"max":[0.875,1.0],"min":[0.125,0.0],"type":"VEC2"},{"bufferView":26,"componentType":5123,"count":2880,"max":[558],"min":[0],"type":"SCALAR"},{"bufferView":27,"componentType":5126,"count":559,"max":[1.000000238418579,1.0,1.0000003576278687],"min":[-0.9999998211860657,-1.0,-1.0],"type":"VEC3"},{"bufferView":28,"componentType":5126,"count":559,"max":[1.0,1.0,1.0],"min":[-1.0,-1.0,-1.0],"type":"VEC3"},{"bufferView":29,"componentType":5126,"count":559,"max":[1.000000238418579,1.0],"min":[0.0,0.0],"type":"VEC2"},{"bufferView":30,"componentType":5123,"count":2130,"max":[477],"min":[0],"type":"SCALAR"},{"bufferView":31,"componentType":5126,"count":478,"max":[3.5658068656921387,3.6046159267425537,3.5658071041107178],"min":[-3.5658061504364014,0.0,-3.565807342529297],"type":"VEC3"},{"bufferView":32,"componentType":5126,"count":478,"max":[0.9993591904640198,1.0,0.9993591904640198],"min":[-0.9993591904640198,-1.0,-0.9993591904640198],"type":"VEC3"},{"bufferView":33,"componentType":5126,"count":478,"max":[0.9999000430107117,0.9999000430107117],"min":[9.998001041822135e-05,9.995698928833008e-05],"type":"VEC2"},{"bufferView":34,"componentType":5123,"count":2880,"max":[558],"min":[0],"type":"SCALAR"},{"bufferView":35,"componentType":5126,"count":559,"max":[1.000000238418579,1.0,1.0000003576278687],"min":[-0.9999998211860657,-1.0,-1.0],"type":"VEC3"},{"bufferView":36,"componentType":5126,"count":559,"max":[1.0,1.0,1.0],"min":[-1.0,-1.0,-1.0],"type":"VEC3"},{"bufferView":37,"componentType":5126,"count":559,"max":[1.000000238418579,1.0],"min":[0.0,0.0],"type":"VEC2"},{"bufferView":38,"componentType":5123,"count":2880,"max":[558],"min":[0],"type":"SCALAR"},{"bufferView":39,"componentType":5126,"count":559,"max":[1.000000238418579,1.0,1.0000003576278687],"min":[-0.9999998211860657,-1.0,-1.0],"type":"VEC3"},{"bufferView":40,"componentType":5126,"count":559,"max":[1.0,1.0,1.0],"min":[-1.0,-1.0,-1.0],"type":"VEC3"},{"bufferView":41,"componentType":5126,"count":559,"max":[1.000000238418579,1.0],"min":[0.0,0.0],"type":"VEC2"},{"bufferView":42,"componentType":5126,"count":31,"max":[1.25],"min":[0.0],"type":"SCALAR"},{"bufferView":43,"componentType":5126,"count":31,"max":[0.0,0.0,0.24738624691963196],"min":[0.0,0.0,-0.0],"type":"VEC3"}],"animations":[{"channels":[{"sampler":0,"target":{"node":2,"path":"translation"}}],"extensions":{"S8S_v3d_animation":{"auto":false,"loop":"REPEAT","offset":0.0,"repeatCount":1.0,"repeatInfinite":true}},"name":"drawer","samplers":[{"input":42,"interpolation":"LINEAR","output":43}]}],"asset":{"copyright":"Soft8Soft, LLC","generator":"Verge3D for Blender v4.13.0","version":"2.0"},"bufferViews":[{"buffer":0,"byteLength":204,"byteOffset":0,"target":34963},{"buffer":0,"byteLength":1488,"byteOffset":204,"target":34962},{"buffer":0,"byteLength":1488,"byteOffset":1692,"target":34962},{"buffer":0,"byteLength":992,"byteOffset":3180,"target":34962},{"buffer":0,"byteLength":192,"byteOffset":4172,"target":34963},{"buffer":0,"byteLength":768,"byteOffset":4364,"target":34962},{"buffer":0,"byteLength":768,"byteOffset":5132,"target":34962},{"buffer":0,"byteLength":300,"byteOffset":5900,"target":34963},{"buffer":0,"byteLength":1620,"byteOffset":6200,"target":34962},{"buffer":0,"byteLength":1620,"byteOffset":7820,"target":34962},{"buffer":0,"byteLength":150,"byteOffset":9440,"target":34963},{"buffer":0,"byteLength":1248,"byteOffset":9592,"target":34962},{"buffer":0,"byteLength":1248,"byteOffset":10840,"target":34962},{"buffer":0,"byteLength":832,"byteOffset":12088,"target":34962},{"buffer":0,"byteLength":36,"byteOffset":12920,"target":34963},{"buffer":0,"byteLength":288,"byteOffset":12956,"target":34962},{"buffer":0,"byteLength":288,"byteOffset":13244,"target":34962},{"buffer":0,"byteLength":192,"byteOffset":13532,"target":34962},{"buffer":0,"byteLength":36,"byteOffset":13724,"target":34963},{"buffer":0,"byteLength":288,"byteOffset":13760,"target":34962},{"buffer":0,"byteLength":288,"byteOffset":14048,"target":34962},{"buffer":0,"byteLength":192,"byteOffset":14336,"target":34962},{"buffer":0,"byteLength":36,"byteOffset":14528,"target":34963},{"buffer":0,"byteLength":288,"byteOffset":14564,"target":34962},{"buffer":0,"byteLength":288,"byteOffset":14852,"target":34962},{"buffer":0,"byteLength":192,"byteOffset":15140,"target":34962},{"buffer":0,"byteLength":5760,"byteOffset":15332,"target":34963},{"buffer":0,"byteLength":6708,"byteOffset":21092,"target":34962},{"buffer":0,"byteLength":6708,"byteOffset":27800,"target":34962},{"buffer":0,"byteLength":4472,"byteOffset":34508,"target":34962},{"buffer":0,"byteLength":4260,"byteOffset":38980,"target":34963},{"buffer":0,"byteLength":5736,"byteOffset":43240,"target":34962},{"buffer":0,"byteLength":5736,"byteOffset":48976,"target":34962},{"buffer":0,"byteLength":3824,"byteOffset":54712,"target":34962},{"buffer":0,"byteLength":5760,"byteOffset":58536,"target":34963},{"buffer":0,"byteLength":6708,"byteOffset":64296,"target":34962},{"buffer":0,"byteLength":6708,"byteOffset":71004,"target":34962},{"buffer":0,"byteLength":4472,"byteOffset":77712,"target":34962},{"buffer":0,"byteLength":5760,"byteOffset":82184,"target":34963},{"buffer":0,"byteLength":6708,"byteOffset":87944,"target":34962},{"buffer":0,"byteLength":6708,"byteOffset":94652,"target":34962},{"buffer":0,"byteLength":4472,"byteOffset":101360,"target":34962},{"buffer":0,"byteLength":124,"byteOffset":105832},{"buffer":0,"byteLength":372,"byteOffset":105956}],"buffers":[{"byteLength":106328,"uri":"simple_configurator.bin"}],"cameras":[{"extensions":{"S8S_v3d_camera":{"controls":"ORBIT","enablePan":true,"moveSpeed":1.0,"orbitMaxDistance":5.0,"orbitMaxPolarAngle":1.483529806137085,"orbitMaxZoom":100.0,"orbitMinDistance":2.0,"orbitMinPolarAngle":0.0,"orbitMinZoom":0.009999999776482582,"orbitTarget":[0.0,0.30000001192092896,0.20000000298023224],"rotateSpeed":1.0,"viewportFitInitialAspect":1.7777777777777777,"viewportFitType":"AUTO"}},"name":"Camera","perspective":{"aspectRatio":1.7777777777777777,"yfov":0.5033799372418416,"zfar":100.0,"znear":0.10000000149011612},"type":"perspective"}],"extensions":{"S8S_v3d_lights":{"lights":[{"color":[1.0,1.0,1.0],"intensity":1.7000000476837158,"name":"Lamp","profile":"blender","shadow":{"bias":-0.0018,"cameraFar":100,"cameraFov":0,"cameraNear":0.1,"csm":{"count":4,"exponent":0.800000011920929,"fade":0.10000000149011612,"lightMargin":0.0,"maxDistance":1000.0},"enabled":true,"expBias":2.5,"mapSize":1024,"radius":1.0,"slopeScaledBias":2.5},"type":"directional"}]}},"extensionsUsed":["S8S_v3d_texture","S8S_v3d_materials","S8S_v3d_camera","S8S_v3d_lights","S8S_v3d_mesh","S8S_v3d_node","S8S_v3d_animation","S8S_v3d_scene"],"images":[{"uri":"ground_mask.jpg"},{"uri":"wood_basecolor_1.jpg"},{"uri":"wood_basecolor_2.jpg"},{"uri":"wood_basecolor_3.jpg"},{"uri":"wood_basecolor_1_001.jpg"},{"uri":"environment.hdr"}],"materials":[{"alphaMode":"OPAQUE","extensions":{"S8S_v3d_materials":{"gtaoVisible":true,"materialIndex":0,"nodeGraph":{"edges":[{"fromNode":1,"fromOutput":0,"toInput":0,"toNode":0}],"nodes":[{"inputs":[[0,0,0,0],[0,0,0,0],[0.0,0.0,0.0],0.0],"is_active_output":true,"name":"Material Output","outputs":[],"type":"OUTPUT_MATERIAL_BL"},{"inputs":[[0.800000011920929,0.800000011920929,0.800000011920929,1.0],0.9047619104385376,0.10000000149011612,1.4500000476837158,1.0,[0.0,0.0,0.0],0.0,0.0,[1.0,0.20000000298023224,0.10000000149011612],0.05000000074505806,1.399999976158142,0.0,0.5,[1.0,1.0,1.0,1.0],0.0,0.0,[0.0,0.0,0.0],0.0,0.0,0.029999999329447746,1.5,[1.0,1.0,1.0,1.0],[0.0,0.0,0.0],0.0,0.5,[1.0,1.0,1.0,1.0],[0.0,0.0,0.0,1.0],1.0,0.0,1.3300000429153442],"is_active_output":false,"name":"Principled BSDF","outputs":[[0,0,0,0]],"type":"BSDF_PRINCIPLED_BL"}]}}},"name":"chrome"},{"alphaMode":"OPAQUE","extensions":{"S8S_v3d_materials":{"gtaoVisible":true,"materialIndex":0,"nodeGraph":{"edges":[{"fromNode":0,"fromOutput":0,"toInput":0,"toNode":4},{"fromNode":4,"fromOutput":0,"toInput":0,"toNode":1},{"fromNode":2,"fromOutput":0,"toInput":2,"toNode":1},{"fromNode":5,"fromOutput":0,"toInput":1,"toNode":1},{"fromNode":1,"fromOutput":0,"toInput":0,"toNode":3}],"nodes":[{"inputs":[],"is_active_output":false,"name":"UV Map","outputs":[[0.0,0.0,0.0]],"type":"UVMAP_BL","uvLayer":"UVMap"},{"inputs":[0.5,[0,0,0,0],[0,0,0,0]],"is_active_output":false,"name":"Mix Shader","outputs":[[0,0,0,0]],"type":"MIX_SHADER_BL"},{"inputs":[[1.0,1.0,1.0,1.0],0.5],"is_active_output":false,"name":"Emission","outputs":[[0,0,0,0]],"type":"EMISSION_BL"},{"inputs":[[0,0,0,0],[0,0,0,0],[0.0,0.0,0.0],0.0],"is_active_output":true,"name":"Material Output","outputs":[],"type":"OUTPUT_MATERIAL_BL"},{"alphaMode":"STRAIGHT","inputs":[[0.0,0.0,0.0]],"is_active_output":false,"name":"Image Texture","outputs":[[0.0,0.0,0.0,0.0],0.0],"projection":"FLAT","projectionBlend":0.0,"texture":0,"type":"TEX_IMAGE_BL"},{"inputs":[[0.800000011920929,0.800000011920929,0.800000011920929,1.0],0.0,[0.0,0.0,0.0]],"is_active_output":false,"name":"Diffuse BSDF","outputs":[[0,0,0,0]],"type":"BSDF_DIFFUSE_BL"}]}}},"name":"environment"},{"alphaMode":"OPAQUE","extensions":{"S8S_v3d_materials":{"gtaoVisible":true,"materialIndex":0,"nodeGraph":{"edges":[{"fromNode":1,"fromOutput":0,"toInput":0,"toNode":0}],"nodes":[{"inputs":[[0,0,0,0],[0,0,0,0],[0.0,0.0,0.0],0.0],"is_active_output":true,"name":"Material Output","outputs":[],"type":"OUTPUT_MATERIAL_BL"},{"inputs":[[0.002830555895343423,0.002830555895343423,0.002830555895343423,1.0],0.0,0.20000000298023224,1.4500000476837158,1.0,[0.0,0.0,0.0],0.0,0.0,[1.0,0.20000000298023224,0.10000000149011612],0.05000000074505806,1.399999976158142,0.0,0.5,[1.0,1.0,1.0,1.0],0.0,0.0,[0.0,0.0,0.0],0.0,0.0,0.029999999329447746,1.5,[1.0,1.0,1.0,1.0],[0.0,0.0,0.0],0.0,0.5,[1.0,1.0,1.0,1.0],[0.0,0.0,0.0,1.0],1.0,0.0,1.3300000429153442],"is_active_output":false,"name":"Principled BSDF","outputs":[[0,0,0,0]],"type":"BSDF_PRINCIPLED_BL"}]}}},"name":"paint_black"},{"alphaMode":"OPAQUE","extensions":{"S8S_v3d_materials":{"gtaoVisible":true,"materialIndex":0,"nodeGraph":{"edges":[{"fromNode":1,"fromOutput":0,"toInput":0,"toNode":0}],"nodes":[{"inputs":[[0,0,0,0],[0,0,0,0],[0.0,0.0,0.0],0.0],"is_active_output":true,"name":"Material Output","outputs":[],"type":"OUTPUT_MATERIAL_BL"},{"inputs":[[0.7066324353218079,0.7066324353218079,0.7066324353218079,1.0],0.0,0.20000000298023224,1.4500000476837158,1.0,[0.0,0.0,0.0],0.0,0.0,[1.0,0.20000000298023224,0.10000000149011612],0.05000000074505806,1.399999976158142,0.0,0.5,[1.0,1.0,1.0,1.0],0.0,0.0,[0.0,0.0,0.0],0.0,0.0,0.029999999329447746,1.5,[1.0,1.0,1.0,1.0],[0.0,0.0,0.0],0.0,0.5,[1.0,1.0,1.0,1.0],[0.0,0.0,0.0,1.0],1.0,0.0,1.3300000429153442],"is_active_output":false,"name":"Principled BSDF","outputs":[[0,0,0,0]],"type":"BSDF_PRINCIPLED_BL"}]}}},"name":"paint_white"},{"alphaMode":"OPAQUE","extensions":{"S8S_v3d_materials":{"gtaoVisible":true,"materialIndex":0,"nodeGraph":{"edges":[{"fromNode":1,"fromOutput":0,"toInput":0,"toNode":0},{"fromNode":4,"fromOutput":0,"toInput":0,"toNode":1},{"fromNode":2,"fromOutput":0,"toInput":0,"toNode":4},{"fromNode":3,"fromOutput":0,"toInput":0,"toNode":2}],"nodes":[{"inputs":[[0,0,0,0],[0,0,0,0],[0.0,0.0,0.0],0.0],"is_active_output":true,"name":"Material Output","outputs":[],"type":"OUTPUT_MATERIAL_BL"},{"inputs":[[0.800000011920929,0.800000011920929,0.800000011920929,1.0],0.0,0.5,1.4500000476837158,1.0,[0.0,0.0,0.0],0.0,0.0,[1.0,0.20000000298023224,0.10000000149011612],0.05000000074505806,1.399999976158142,0.0,0.5,[1.0,1.0,1.0,1.0],0.0,0.0,[0.0,0.0,0.0],0.0,0.0,0.029999999329447746,1.5,[1.0,1.0,1.0,1.0],[0.0,0.0,0.0],0.0,0.5,[1.0,1.0,1.0,1.0],[0.0,0.0,0.0,1.0],1.0,0.0,1.3300000429153442],"is_active_output":false,"name":"Principled BSDF","outputs":[[0,0,0,0]],"type":"BSDF_PRINCIPLED_BL"},{"inputs":[[0.0,0.0,0.0],[0.0,0.0,0.0],[0.0,0.0,0.0],[5.0,5.0,5.0]],"is_active_output":false,"name":"Mapping","outputs":[[0.0,0.0,0.0]],"type":"MAPPING_BL","vectorType":"POINT"},{"inputs":[],"is_active_output":false,"name":"UV Map","outputs":[[0.0,0.0,0.0]],"type":"UVMAP_BL","uvLayer":"UVMap"},{"alphaMode":"STRAIGHT","inputs":[[0.0,0.0,0.0]],"is_active_output":false,"name":"Image Texture","outputs":[[0.0,0.0,0.0,0.0],0.0],"projection":"FLAT","projectionBlend":0.0,"texture":1,"type":"TEX_IMAGE_BL"}]}}},"name":"wood1"},{"alphaMode":"OPAQUE","extensions":{"S8S_v3d_materials":{"gtaoVisible":true,"materialIndex":0,"nodeGraph":{"edges":[{"fromNode":1,"fromOutput":0,"toInput":0,"toNode":0},{"fromNode":4,"fromOutput":0,"toInput":0,"toNode":1},{"fromNode":2,"fromOutput":0,"toInput":0,"toNode":4},{"fromNode":3,"fromOutput":0,"toInput":0,"toNode":2}],"nodes":[{"inputs":[[0,0,0,0],[0,0,0,0],[0.0,0.0,0.0],0.0],"is_active_output":true,"name":"Material Output","outputs":[],"type":"OUTPUT_MATERIAL_BL"},{"inputs":[[0.800000011920929,0.800000011920929,0.800000011920929,1.0],0.0,0.5,1.4500000476837158,1.0,[0.0,0.0,0.0],0.0,0.0,[1.0,0.20000000298023224,0.10000000149011612],0.05000000074505806,1.399999976158142,0.0,0.5,[1.0,1.0,1.0,1.0],0.0,0.0,[0.0,0.0,0.0],0.0,0.0,0.029999999329447746,1.5,[1.0,1.0,1.0,1.0],[0.0,0.0,0.0],0.0,0.5,[1.0,1.0,1.0,1.0],[0.0,0.0,0.0,1.0],1.0,0.0,1.3300000429153442],"is_active_output":false,"name":"Principled BSDF","outputs":[[0,0,0,0]],"type":"BSDF_PRINCIPLED_BL"},{"inputs":[[0.0,0.0,0.0],[0.0,0.0,0.0],[0.0,0.0,0.0],[5.0,5.0,5.0]],"is_active_output":false,"name":"Mapping","outputs":[[0.0,0.0,0.0]],"type":"MAPPING_BL","vectorType":"POINT"},{"inputs":[],"is_active_output":false,"name":"UV Map","outputs":[[0.0,0.0,0.0]],"type":"UVMAP_BL","uvLayer":"UVMap"},{"alphaMode":"STRAIGHT","inputs":[[0.0,0.0,0.0]],"is_active_output":false,"name":"Image Texture","outputs":[[0.0,0.0,0.0,0.0],0.0],"projection":"FLAT","projectionBlend":0.0,"texture":2,"type":"TEX_IMAGE_BL"}]}}},"name":"wood2"},{"alphaMode":"OPAQUE","extensions":{"S8S_v3d_materials":{"gtaoVisible":true,"materialIndex":0,"nodeGraph":{"edges":[{"fromNode":1,"fromOutput":0,"toInput":0,"toNode":0},{"fromNode":2,"fromOutput":0,"toInput":0,"toNode":1},{"fromNode":3,"fromOutput":0,"toInput":0,"toNode":2},{"fromNode":4,"fromOutput":0,"toInput":0,"toNode":3}],"nodes":[{"inputs":[[0,0,0,0],[0,0,0,0],[0.0,0.0,0.0],0.0],"is_active_output":true,"name":"Material Output","outputs":[],"type":"OUTPUT_MATERIAL_BL"},{"inputs":[[0.800000011920929,0.800000011920929,0.800000011920929,1.0],0.0,0.5,1.4500000476837158,1.0,[0.0,0.0,0.0],0.0,0.0,[1.0,0.20000000298023224,0.10000000149011612],0.05000000074505806,1.399999976158142,0.0,0.5,[1.0,1.0,1.0,1.0],0.0,0.0,[0.0,0.0,0.0],0.0,0.0,0.029999999329447746,1.5,[1.0,1.0,1.0,1.0],[0.0,0.0,0.0],0.0,0.5,[1.0,1.0,1.0,1.0],[0.0,0.0,0.0,1.0],1.0,0.0,1.3300000429153442],"is_active_output":false,"name":"Principled BSDF","outputs":[[0,0,0,0]],"type":"BSDF_PRINCIPLED_BL"},{"alphaMode":"STRAIGHT","inputs":[[0.0,0.0,0.0]],"is_active_output":false,"name":"Image Texture","outputs":[[0.0,0.0,0.0,0.0],0.0],"projection":"FLAT","projectionBlend":0.0,"texture":3,"type":"TEX_IMAGE_BL"},{"inputs":[[0.0,0.0,0.0],[0.0,0.0,0.0],[0.0,0.0,0.0],[5.0,5.0,5.0]],"is_active_output":false,"name":"Mapping","outputs":[[0.0,0.0,0.0]],"type":"MAPPING_BL","vectorType":"POINT"},{"inputs":[],"is_active_output":false,"name":"UV Map","outputs":[[0.0,0.0,0.0]],"type":"UVMAP_BL","uvLayer":"UVMap"}]}}},"name":"wood3"},{"alphaMode":"OPAQUE","extensions":{"S8S_v3d_materials":{"gtaoVisible":true,"materialIndex":0,"nodeGraph":{"edges":[{"fromNode":1,"fromOutput":0,"toInput":0,"toNode":0},{"fromNode":4,"fromOutput":0,"toInput":0,"toNode":1},{"fromNode":2,"fromOutput":0,"toInput":0,"toNode":4},{"fromNode":3,"fromOutput":0,"toInput":0,"toNode":2}],"nodes":[{"inputs":[[0,0,0,0],[0,0,0,0],[0.0,0.0,0.0],0.0],"is_active_output":true,"name":"Material Output","outputs":[],"type":"OUTPUT_MATERIAL_BL"},{"inputs":[[0.800000011920929,0.800000011920929,0.800000011920929,1.0],0.0,0.5,1.4500000476837158,1.0,[0.0,0.0,0.0],0.0,0.0,[1.0,0.20000000298023224,0.10000000149011612],0.05000000074505806,1.399999976158142,0.0,0.5,[1.0,1.0,1.0,1.0],0.0,0.0,[0.0,0.0,0.0],0.0,0.0,0.029999999329447746,1.5,[1.0,1.0,1.0,1.0],[0.0,0.0,0.0],0.0,0.5,[1.0,1.0,1.0,1.0],[0.0,0.0,0.0,1.0],1.0,0.0,1.3300000429153442],"is_active_output":false,"name":"Principled BSDF","outputs":[[0,0,0,0]],"type":"BSDF_PRINCIPLED_BL"},{"inputs":[[0.0,0.0,0.0],[0.0,0.0,0.0],[0.0,0.0,0.0],[5.0,5.0,5.0]],"is_active_output":false,"name":"Mapping","outputs":[[0.0,0.0,0.0]],"type":"MAPPING_BL","vectorType":"POINT"},{"inputs":[],"is_active_output":false,"name":"UV Map","outputs":[[0.0,0.0,0.0]],"type":"UVMAP_BL","uvLayer":"UVMap"},{"alphaMode":"STRAIGHT","inputs":[[0.0,0.0,0.0]],"is_active_output":false,"name":"Image Texture","outputs":[[0.0,0.0,0.0,0.0],0.0],"projection":"FLAT","projectionBlend":0.0,"texture":4,"type":"TEX_IMAGE_BL"}]}}},"name":"wood_original"},{"alphaMode":"OPAQUE","extensions":{"S8S_v3d_materials":{"gtaoVisible":true,"materialIndex":0,"nodeGraph":{"edges":[{"fromNode":1,"fromOutput":0,"toInput":0,"toNode":0},{"fromNode":2,"fromOutput":0,"toInput":0,"toNode":1}],"nodes":[{"inputs":[[0,0,0,0],[0,0,0,0]],"is_active_output":true,"name":"World Output","outputs":[],"type":"OUTPUT_WORLD_BL"},{"inputs":[[0.05087608844041824,0.05087608844041824,0.05087608844041824,1.0],0.6000000238418579],"is_active_output":false,"name":"Background","outputs":[[0,0,0,0]],"type":"BACKGROUND_BL"},{"inputs":[[0.0,0.0,0.0]],"is_active_output":false,"name":"Environment Texture","outputs":[[0.0,0.0,0.0,0.0]],"projection":"EQUIRECTANGULAR","texture":5,"type":"TEX_ENVIRONMENT_BL"}]}}},"name":"Verge3D_Environment_World"}],"meshes":[{"extensions":{"S8S_v3d_mesh":{"colorLayers":{},"uvLayers":{"UVMap":"TEXCOORD_0"}}},"name":"Cube","primitives":[{"attributes":{"NORMAL":2,"POSITION":1,"TEXCOORD_0":3},"indices":0,"material":7,"mode":4}]},{"extensions":{"S8S_v3d_mesh":{"colorLayers":{},"uvLayers":{}}},"name":"Cube.001","primitives":[{"attributes":{"NORMAL":6,"POSITION":5},"indices":4,"material":0,"mode":4}]},{"extensions":{"S8S_v3d_mesh":{"colorLayers":{},"uvLayers":{}}},"name":"Cube.002","primitives":[{"attributes":{"NORMAL":9,"POSITION":8},"indices":7,"material":0,"mode":4}]},{"extensions":{"S8S_v3d_mesh":{"colorLayers":{},"uvLayers":{"UVMap":"TEXCOORD_0"}}},"name":"Cube.003","primitives":[{"attributes":{"NORMAL":12,"POSITION":11,"TEXCOORD_0":13},"indices":10,"material":7,"mode":4}]},{"extensions":{"S8S_v3d_mesh":{"colorLayers":{},"uvLayers":{"UVMap":"TEXCOORD_0"}}},"name":"Cube.004","primitives":[{"attributes":{"NORMAL":16,"POSITION":15,"TEXCOORD_0":17},"indices":14,"material":4,"mode":4}]},{"extensions":{"S8S_v3d_mesh":{"colorLayers":{},"uvLayers":{"UVMap":"TEXCOORD_0"}}},"name":"Cube.005","primitives":[{"attributes":{"NORMAL":20,"POSITION":19,"TEXCOORD_0":21},"indices":18,"material":5,"mode":4}]},{"extensions":{"S8S_v3d_mesh":{"colorLayers":{},"uvLayers":{"UVMap":"TEXCOORD_0"}}},"name":"Cube.006","primitives":[{"attributes":{"NORMAL":24,"POSITION":23,"TEXCOORD_0":25},"indices":22,"material":6,"mode":4}]},{"extensions":{"S8S_v3d_mesh":{"colorLayers":{},"uvLayers":{"UVMap":"TEXCOORD_0"}}},"name":"Sphere","primitives":[{"attributes":{"NORMAL":28,"POSITION":27,"TEXCOORD_0":29},"indices":26,"material":0,"mode":4}]},{"extensions":{"S8S_v3d_mesh":{"colorLayers":{},"uvLayers":{"UVMap":"TEXCOORD_0"}}},"name":"Sphere.001","primitives":[{"attributes":{"NORMAL":32,"POSITION":31,"TEXCOORD_0":33},"indices":30,"material":1,"mode":4}]},{"extensions":{"S8S_v3d_mesh":{"colorLayers":{},"uvLayers":{"UVMap":"TEXCOORD_0"}}},"name":"Sphere.002","primitives":[{"attributes":{"NORMAL":36,"POSITION":35,"TEXCOORD_0":37},"indices":34,"material":2,"mode":4}]},{"extensions":{"S8S_v3d_mesh":{"colorLayers":{},"uvLayers":{"UVMap":"TEXCOORD_0"}}},"name":"Sphere.003","primitives":[{"attributes":{"NORMAL":40,"POSITION":39,"TEXCOORD_0":41},"indices":38,"material":3,"mode":4}]}],"nodes":[{"extensions":{"S8S_v3d_node":{"frustumCulling":true,"groupNames":[],"renderOrder":0,"useCastShadows":true,"useShadows":true}},"mesh":7,"name":"sphere_chrome","scale":[0.0521315298974514,0.0521315298974514,0.0521315298974514],"translation":[-0.28799641132354736,0.010793233290314674,0.6269998550415039]},{"extensions":{"S8S_v3d_node":{"frustumCulling":true,"groupNames":[],"renderOrder":0,"useCastShadows":true,"useShadows":true}},"mesh":6,"name":"plank_wood_3","rotation":[-0.832064151763916,0.007851491682231426,0.5544417500495911,0.014211617410182953],"scale":[-0.10290180146694183,-0.0026966636069118977,-0.20580706000328064],"translation":[0.7437855005264282,0.00728980079293251,0.5381360650062561]},{"extensions":{"S8S_v3d_node":{"frustumCulling":true,"groupNames":["Collection 1"],"renderOrder":0,"useCastShadows":true,"useShadows":true}},"mesh":3,"name":"drawer"},{"extensions":{"S8S_v3d_node":{"frustumCulling":true,"groupNames":["Collection 1"],"renderOrder":0,"useCastShadows":true,"useShadows":true}},"mesh":2,"name":"legs"},{"extensions":{"S8S_v3d_node":{"frustumCulling":true,"groupNames":["Collection 1"],"renderOrder":0,"useCastShadows":true,"useShadows":true}},"mesh":0,"name":"nightstand"},{"extensions":{"S8S_v3d_node":{"frustumCulling":true,"groupNames":[],"renderOrder":0,"useCastShadows":true,"useShadows":true}},"mesh":4,"name":"plank_wood_1","rotation":[0.9922100305557251,-0.0,-0.12457653135061264,0.0],"scale":[-0.10290180146694183,-0.002696663374081254,-0.20580704510211945],"translation":[0.2946018576622009,0.0016804076731204987,0.6731341481208801]},{"extensions":{"S8S_v3d_node":{"frustumCulling":true,"groupNames":[],"renderOrder":0,"useCastShadows":true,"useShadows":true}},"mesh":9,"name":"sphere_paint_black","scale":[0.0521315298974514,0.0521315298974514,0.0521315298974514],"translation":[-0.16755662858486176,0.010793233290314674,0.6828781962394714]},{"extensions":{"S8S_v3d_node":{"frustumCulling":true,"groupNames":[],"renderOrder":0,"useCastShadows":true,"useShadows":true}},"mesh":5,"name":"plank_wood_2","rotation":[-0.9533631801605225,-0.002665393752977252,0.3016960620880127,0.008422676473855972],"scale":[-0.10290180146694183,-0.002696663374081254,-0.20580704510211945],"translation":[0.503021240234375,0.00728980079293251,0.6074454188346863]},{"extensions":{"S8S_v3d_node":{"frustumCulling":true,"groupNames":[],"renderOrder":0,"useCastShadows":true,"useShadows":true}},"mesh":10,"name":"sphere_paint_white","scale":[0.0521315298974514,0.0521315298974514,0.0521315298974514],"translation":[-0.16755662858486176,0.010793233290314674,0.5056136250495911]},{"extensions":{"S8S_v3d_node":{"frustumCulling":true,"groupNames":["Collection 1"],"renderOrder":0,"useCastShadows":true,"useShadows":true}},"mesh":8,"name":"Sphere"},{"extensions":{"S8S_v3d_node":{"frustumCulling":true,"groupNames":["Collection 1"],"renderOrder":0,"useCastShadows":true,"useShadows":true}},"mesh":1,"name":"legs_tips"},{"extensions":{"S8S_v3d_lights":{"light":0},"S8S_v3d_node":{"frustumCulling":true,"groupNames":["Collection 1"],"renderOrder":0}},"name":"Lamp","rotation":[-0.2550181448459625,0.4173870384693146,0.4172537326812744,0.7659329175949097],"scale":[1.0,0.9999999403953552,0.9999999403953552],"translation":[1.6428619623184204,1.966616153717041,0.654461145401001]},{"camera":0,"extensions":{"S8S_v3d_node":{"frustumCulling":true,"groupNames":["Collection 1"],"renderOrder":0}},"name":"Camera","rotation":[-0.12427645176649094,-0.2626298666000366,-0.0341322086751461,0.9562509655952454],"scale":[1.0,0.9999999403953552,1.0],"translation":[-1.3496423959732056,1.013817548751831,2.274623155593872]}],"samplers":[{}],"scene":0,"scenes":[{"extensions":{"S8S_v3d_scene":{"aaMethod":"AUTO","iblEnvironmentMode":"PMREM","pmremMaxTileSize":512,"shadowMap":{"esmDistanceScale":1.0,"renderReverseSided":false,"renderSingleSided":true,"type":"PCFPOISSON"},"worldMaterial":8}},"extras":{"animFrameRate":24,"coordSystem":"Z_UP_RIGHT"},"name":"Scene","nodes":[5,7,1,0,6,8,9,2,3,10,4,11,12]}],"textures":[{"extensions":{"S8S_v3d_texture":{"colorSpace":"srgb"}},"name":"ground_mask.jpg","sampler":0,"source":0},{"extensions":{"S8S_v3d_texture":{"colorSpace":"srgb"}},"name":"wood texture.001","sampler":0,"source":1},{"extensions":{"S8S_v3d_texture":{"colorSpace":"srgb"}},"name":"wood_basecolor_2.jpg","sampler":0,"source":2},{"extensions":{"S8S_v3d_texture":{"colorSpace":"srgb"}},"name":"wood_basecolor_3.jpg","sampler":0,"source":3},{"extensions":{"S8S_v3d_texture":{"anisotropy":8,"colorSpace":"srgb"}},"name":"wood texture","sampler":0,"source":4},{"extensions":{"S8S_v3d_texture":{"colorSpace":"linear rec.709","source":5}},"name":"environment.hdr","sampler":0}]}
